<?xml version="1.0" encoding="UTF-8"?>
<svg id="Capa_2" data-name="Capa 2" xmlns="http://www.w3.org/2000/svg" viewBox="0 0 858.23 363.05">
  <defs>
    <style>
      .cls-1 {
        fill: #fff;
      }
    </style>
  </defs>
  <g id="Capa_1-2" data-name="Capa 1">
    <g>
      <g>
        <path class="cls-1" d="M39.28,151.03c4.51-13.02,23.2-15.53,31.22-10.18,9.18,6.01-6.34,30.38,1.84,30.38,6.84,0,10.68-9.18,10.68-20.2v-22.37c0-11.35-5.01-15.69-5.01-24.87,0-7.35,6.68-10.02,17.36-10.02s17.36,2.67,17.36,10.02c0,9.18-5.18,13.52-5.18,24.87v27.04c0,14.69-14.02,23.87-33.55,23.87-25.21,0-39.23-15.53-34.72-28.55Z"/>
        <path class="cls-1" d="M121.91,128.66c0-11.35-5.01-15.69-5.01-24.87,0-7.35,6.68-10.02,17.36-10.02s17.36,2.67,17.36,10.02c0,9.18-5.17,13.52-5.17,24.87v16.86c0,15.02,7.01,25.71,17.19,25.71s17.03-10.35,17.03-25.71v-16.86c0-11.35-5.01-15.69-5.01-24.87,0-7.35,6.68-10.02,17.36-10.02s17.36,2.67,17.36,10.02c0,9.18-5.18,13.52-5.18,24.87v16.19c0,11.52,5.18,16.03,5.18,24.21s-6.34,10.52-17.36,10.52c-8.35,0-11.19-3-12.02-8.51-4.84,5.51-12.19,8.51-22.54,8.51-22.87,0-36.56-10.85-36.56-33.89v-17.03Z"/>
        <path class="cls-1" d="M222.73,144.86v-16.19c0-11.35-5.01-15.69-5.01-24.87,0-7.35,6.68-10.02,17.36-10.02s17.36,2.67,17.36,10.02c0,9.18-5.18,13.52-5.18,24.87v16.19c0,11.35,5.18,15.69,5.18,24.87,0,7.35-6.68,9.85-17.36,9.85s-17.36-2.5-17.36-9.85c0-9.18,5.01-13.52,5.01-24.87Z"/>
        <path class="cls-1" d="M256.45,136.68c0-23.71,21.2-42.9,47.58-42.9,13.52,0,22.2,5.68,29.05,7.68,16.86,4.51,11.02,32.22-3.67,32.22-12.19,0-8.35-15.36-14.86-23.54-7.01-9.01-19.7-10.35-26.88-4.67-18.7,14.36,20.87,77.29,48.75,50.75,4.51-4.51,10.52.17,6.34,5.34-8.85,10.85-22.7,18.03-38.73,18.03-26.38,0-47.58-19.2-47.58-42.9Z"/>
        <path class="cls-1" d="M353.27,128.66c0-11.35-5.01-15.69-5.01-24.87,0-7.35,6.51-9.85,17.03-10.02h17.53c10.68,0,15.86-.5,19.2-1.17,24.71-5.18,25.37,24.37,13.52,24.37-11.02,0-15.36-14.69-26.38-14.69-6.51,0-11.35,2.67-11.35,9.68v19.03h5.68c8.01,0,12.52-7.18,20.2-7.18,6.51,0,7.01,4.67,7.01,11.35s-.5,11.52-7.01,11.52c-7.68,0-12.19-7.35-20.2-7.35h-5.68v22.2c0,7.01,4.84,9.68,11.35,9.68,11.02,0,15.36-14.69,26.38-14.69,11.85,0,11.18,29.55-13.52,24.37-3.34-.67-8.51-1.34-19.2-1.34h-17.53c-10.52,0-17.03-2.67-17.03-9.85,0-9.18,5.01-13.52,5.01-24.87v-16.19Z"/>
      </g>
      <g>
        <path class="cls-1" d="M0,232.32c0-23.71,21.2-42.9,47.58-42.9,13.52,0,22.2,5.68,29.05,7.68,16.86,4.51,11.02,32.22-3.67,32.22-12.19,0-8.35-15.36-14.86-23.54-7.01-9.01-19.7-10.35-26.88-4.67-18.7,14.36,20.87,77.29,48.75,50.75,4.51-4.51,10.52.17,6.34,5.34-8.85,10.85-22.7,18.03-38.73,18.03-26.38,0-47.58-19.2-47.58-42.9Z"/>
        <path class="cls-1" d="M96.82,240.5v-16.19c0-11.35-5.01-15.69-5.01-24.87,0-7.35,6.68-10.02,17.36-10.02h32.39c13.86,0,26.88,10.18,26.88,22.87,0,7.51-4.84,14.36-11.69,18.53,7.18,2.84,12.19,7.85,12.19,15.36,0,8.85,5.18,12.02,5.18,19.2s-6.68,9.85-17.36,9.85-17.36-2.5-17.36-9.85,5.01-10.35,5.01-19.2c0-5.84-8.68-11.18-15.19-11.18h-7.85v5.51c0,11.35,5.17,15.69,5.17,24.87,0,7.35-6.68,9.85-17.36,9.85s-17.36-2.5-17.36-9.85c0-9.18,5.01-13.52,5.01-24.87ZM125.03,197.76h-3.67v28.88h3.67c8.85,0,16.69-6.84,16.69-14.36s-7.85-14.52-16.69-14.52Z"/>
        <path class="cls-1" d="M183.29,224.31c0-11.35-5.01-15.69-5.01-24.87,0-7.35,6.51-9.85,17.03-10.02h17.53c10.68,0,15.86-.5,19.2-1.17,24.71-5.18,25.37,24.37,13.52,24.37-11.02,0-15.36-14.69-26.38-14.69-6.51,0-11.35,2.67-11.35,9.68v19.03h5.68c8.01,0,12.52-7.18,20.2-7.18,6.51,0,7.01,4.67,7.01,11.35s-.5,11.52-7.01,11.52c-7.68,0-12.19-7.35-20.2-7.35h-5.68v22.2c0,7.01,4.84,9.68,11.35,9.68,11.02,0,15.36-14.69,26.38-14.69,11.85,0,11.18,29.55-13.52,24.37-3.34-.67-8.51-1.34-19.2-1.34h-17.53c-10.52,0-17.03-2.67-17.03-9.85,0-9.18,5.01-13.52,5.01-24.87v-16.19Z"/>
        <path class="cls-1" d="M257.07,264.87c2.34-7.51,12.69-11.85,16.03-21.37l8.35-22.54c3.17-8.85.67-14.52,4.01-22.7,2.5-6.34,8.35-8.85,15.36-8.85,16.03,0,21.03,23.54,25.04,34.89l5.68,16.19c4.01,11.35,10.68,15.69,14.02,24.87,2.5,7.35-4.34,9.85-15.02,9.85s-18.36-2.5-20.87-9.85c-2-5.68-1.5-9.52-1.67-14.19h-27.88c-.67,5.84,9.01,9.68,7.85,16.19-.83,5.01-7.18,7.85-17.53,7.85-7.51,0-15.86-3-13.36-10.35ZM282.28,242.84h24.37l-6.51-18.53c-4.01-12.69-7.85-8.68-10.18-3l-7.68,21.54Z"/>
        <path class="cls-1" d="M349.72,266.71c.67-8.35,10.52-14.86,11.35-26.21l1.34-19.2c.83-11.35-4.01-14.86-3.34-23.2.5-5.68,3.17-8.18,8.68-8.51v-.17h10.35c10.18,0,13.35,5.01,16.86,13.52,3.34,8.18,13.36,35.89,13.36,35.89l14.02-37.23c2.5-6.01,7.18-12.19,17.86-12.19s16.36,2.67,17.03,10.02c.67,9.18-4.17,13.52-3.17,24.87l1.17,16.19c.83,11.35,6.18,15.69,7.01,24.87.5,7.35-6.01,9.85-16.69,9.85s-17.86-2.5-18.53-9.85c-.67-9.18,4.17-13.52,3.34-24.87l-2.34-30.55-22.04,56.43c-3.34,8.85-9.35,8.85-12.69,0l-21.37-54.76-2.17,28.88c-.83,11.35,8.01,17.86,7.35,26.21-.5,6.18-6.84,8.51-14.52,8.51s-13.35-2.34-12.85-8.51Z"/>
      </g>
      <g id="UzMvnZ">
        <g>
          <path class="cls-1" d="M738.31,54.75l3.6-10.08c9.32-19.28,35.93-28.01,56.13-25.97,1.22.12,3.38.53,3.92,1.75.63,1.4-2.11,9.17-2.82,11.07-7.89,20.91-23.94,37.61-47.36,38.88l7.59,4.79c8.36,6.87,14.07,17.16,14.19,28.17,13.23,4,21.53,17.36,11.03,29.18-1.33,1.5-3.43,1.89-3.51,4.31l-6.28,45.21c12.92.44,25.06,5.23,34.76,13.68,1.61,1.4,5.46,6.25,7.16,6.35,1.24.07,2.67-.56,4.34-.47,4.52.24,8.39,2.3,11.27,5.68.69.82,1.32,2.6,1.87,3.03,2.47,1.93,8.11,3.69,11.63,6.5,11.47,9.15,18.31,28.34,5.4,39.27-.81.69-2.45,1.23-2.89,1.68-.5.5-1.04,2.44-1.67,3.33-2.13,3.06-6.76,6.28-10.5,6.88-1.37.22-3.1-.16-4.15.1-.27.07-2.78,3.36-3.81,4.11-6.73,4.87-17.68,3.26-22.74-3.27-1.05-1.35-3.41-6.89-3.73-7.13-.64-.46-3.59-.91-4.92-1.6-9.22-4.83-9.73-20.13-4.13-27.87.68-.94,3.67-3.54,3.77-4.05s-1.46-3.06-1.63-4.32c-.68-4.91.63-7.72,3.84-11.2-6.76-7.24-17.26-9.5-26.87-9.38-3.09,16.59-4.85,33.52-8.43,50.03-.56,2.57-1.11,6.04-2.02,8.41-5.1,13.42-28.61,18.57-41.3,20.19,2.56,10.01,10.65,17.1,21.08,17.81,1.19.08.48-2.08.75-3.16,1.51-6.12,4.89-6.29,8.99-9.25,1.23-.88,1.93-2.35,2.79-3.08,32.07-27.4,62.78,31.99,53.19,59.06-6.31,17.83-29.32,22.91-45.85,17.81-15.94-4.92-18.11-20.12-5.98-30.97.75-.67,3.28-2.11,3.48-2.57.07-.17-.16-2.1-.23-2.18-.16-.17-3.63.06-4.5-.06-1.54-.21-5-1.92-6.12-3.01-.76-.74-1.53-2.72-2.25-2.97-1.6-.55-6.48.1-8.63-.06-16.52-1.21-31.2-14.07-37.77-28.71-.6-1.33-1.67-5.42-2.19-6.08-.68-.87-1.98.05-3.03.03-3.21-.06-6.24-.63-9.59-.48-15.62.68-34.83,16.3-45.17,27.39-1.2,1.29-7.01,7.7-7.37,8.72-.48,1.34.46,6.25.21,8.45-.52,4.62-4.74,9.89-9.54,10.23.39,10.77-6.36,20.46-17.6,21.29-20.02,1.47-46.28-25.83-52.7-43.35-5.57-15.19-3.16-34.74,14.23-40.31,19.23-6.15,35.14,11.11,38.89,28.46,3.45-3.04,8.36-2.55,12.34-.89.8-1.4,2.2-3.16,3.29-4.32,7.22-7.69,15.11-15.33,24.55-20.2-3.76-1.45-7.75-2.25-11.52-3.69-7.56-2.88-15.02-7.43-18.24-15.22-2.74-12.09-3.71-24.63-5.44-36.93-18.27,3.9-35.17-.98-50.28-11.2-.97-.66-4.67-3.81-5.21-3.94-.71-.16-4.44.51-6.01.38-3.7-.3-6.81-1.96-9.33-4.59-.28-.29-.39-.96-.48-1.03-.25-.18-4.89.92-6.03.4-1.31,6.09-2.59,13.47-4.89,19.23-2.79,7-8.98,11.1-16.43,7.51-9.47-4.56-3.79-17.68-1.4-24.91,1.77-5.36,3.97-10.59,5.66-15.98-6-3.24-10.15-9.34-8.47-16.38.31-1.28,2.06-3.89,1.97-4.38-.11-.64-1.92-3.01-2.3-4.21-2.09-6.55,1.95-12.9,7.85-15.63-2.65-11.47,8.31-18.46,18.43-13.91,1.35-5.66,3.73-11.03,5.33-16.61,1.08-3.76,2.58-7.36,2.02-11.37-.35-2.52-2.48-4.58-3.6-6.83-8.64-17.35-1.84-42.31,12.1-55.14,11.73-10.79,26.72-10.67,33.76,4.93,7.9,17.5,1.81,43.18-12.9,55.46-3.59,3-9.31,5-11.68,8.74-3.95,6.24-4.86,15.98-7.21,22.99,17.08,1.43,23.9,18.11,19.67,33.35-.39,1.41-2.62,6.04-2.64,6.48-.02.33,2.27,4.37,2.49,6.04.21,1.58-.38,7.1-.19,7.56.26.62,4.81,4.95,5.67,5.65,9.04,7.35,19.59,9.43,31.06,7.83-2.1-22.97-5.45-45.85-8.27-68.75-10.82-8.23-10.02-21.87,1.79-28.76,1.01-.59,5.34-2.28,5.51-2.53.26-.37.61-3.09.95-4.04,3.65-10.04,11.82-17.7,21.74-21.5-4.05-7.05-4.44-14.59-1.51-22.14,9.1-23.44,47.84-25.37,53.35-43.54,1.4-4.61,0-5.53-.15-9.28-.26-6.43,11.18-2.74,14.58-1.51,16.34,5.93,29.52,21.91,27.33,40,6.29,2.52,12.63,6.51,15.9,12.58ZM720.1,47.39c-4.81,8.75-17.1,17.6-26.95,19.33-1.65.29-6.44,1.32-5.6-1.67.49-1.74,6.16-2.89,8.04-3.71,8.97-3.88,21.26-13.49,21.34-24.19.1-14.47-16.05-29.32-29.89-31.07.08,3.07.1,5.98-.85,8.93-6.26,19.57-41.33,21.54-52.34,40.64-3.93,6.82-3.97,14.1.21,20.81,5.75-1.35,11.61-3.09,17.55-3.48,1.58-.1,6.98-.29,8.2,0,.72.17,1.1,2.24.03,3.02-1.62,1.17-11.99,2.13-15.03,2.78-16.17,3.49-36.79,14.02-33.7,33.87,1.59,10.21,10.48,13.24,19.09,15.23,21.71,5.01,47.45,5.71,69.66,5.08,13.68-.39,46.1-1.32,57.19-8.42,21.89-14.01,7.69-48.38-15.47-51.11-1.01,11.14-9.02,20.59-17.4,27.36-16.31,13.18-45.51,22.73-66.45,20.87-1.83-.16-5.99-.74-4.36-3.48.9-1.5,9.93-.72,12.17-.87,22.32-1.41,51.89-12.55,65.31-31.14,11.03-15.27,7.1-32.09-10.75-38.78ZM786.53,30.86c-15.04,5.47-29.8,17.19-39.02,30.27-.95,1.35-2.16,2.93-2.68,4.48,9.69-9.54,19.26-19.23,30.27-27.29l11.43-7.46ZM564.85,42.71c-9.19.24-18.42,12.09-22,19.71-4.47,9.51-6.3,23.21-2.45,33.17,2.53,6.55,6.73,7.47,5.23,16.1l-7.99,25.04c-.05.47,3.36,3.47,3.62,3.49s4.22-1.76,4.47-2.37c2.12-7.46,3.36-16.03,6.4-23.14,3.43-8.04,7.3-7.7,13.21-12.43,13.95-11.15,20.32-37.96,10.38-53.32-2.43-3.76-6.21-6.39-10.88-6.26ZM605.79,110.37c-13.6,5.74-10.92,17.11.85,23.26,21.9,11.45,69.3,13.54,94.1,12.82,18.23-.53,64.5-4.37,78.37-15.91,9.35-7.78,4.46-18.48-6.04-21.47.39,1.19-.69,3.13-.39,4.05.24.75,3.73,2.42,4.21,4.51.82,3.57-1.25,5.43-3.86,7.26-12.7,8.93-49.89,12.75-65.76,13.31-26.77.94-59.75-.13-85.49-7.53-4.41-1.27-16.9-5.2-18.39-9.84s2.95-5.28,3.2-6.36c.05-.2-.63-3.97-.8-4.09ZM766.12,204.21h-6.73c-1.79,0-5.12-2.74-6.04-4.38-5.57-9.88,7.6-17.69,16.25-17.35l6.09-43.87c-14.5,5.66-29.98,8.98-45.46,10.8-31.25,3.68-69.34,3.19-100.17-3.12-8.4-1.72-17.89-3.94-25.11-8.55v3.25c4.39,32.23,7.62,64.63,12.22,96.83.9,6.3,1.7,18.9,4.79,23.88,8.13,13.09,44.05,16.76,58.34,17.26,17.43.61,61.54-.79,73.45-14.79,4.42-5.2,6.2-20.58,7.46-27.73,1.89-10.69,3.45-21.48,4.92-32.23ZM531.87,153.76c.82-2.21,1.75-4.39,2.87-6.47.58-1.07,3.16-3.96,2.64-4.77-.39-.62-3.98-2.65-4.86-2.98-3.83-1.45-9.9-1.61-12.26,2.4-4.25,7.23,5.91,11.46,11.61,11.83ZM543.66,202.04c1.43.31,2.9,1.28,4.32,1.55,10,1.88,20.94-12.31,16.31-21.52-1.44,1.62-6.99,6.09-9.03,5.57-.51-.13-1.16-.8-1.11-1.38.08-.89,5.53-6.21,6.63-7.72,6.43-8.82,8.89-24.35-.41-32.1-11.24-9.37-24.52-.58-24.98,12.82-.42,12.57,11.89,9.11,16.02.35.75-1.6,1.09-5.62,3.1-4.72,4.43,1.99-1.9,11.14-4.11,13.27-.75.72-3.44,2.3-3.63,2.88-.34,1.02-.05,3.15-.44,4.77-1.45,6.09-5.81,6.51-7.97,10.28-.66,1.16-4.29,12.01-3.82,12.47,3.19.31,5.92-.34,8.91-1.29,2.65-.85,7.97-4.47,4.99,1.4l-4.78,3.37ZM531,158.22c-2.57.47-12.64-5.71-13.56-5.62-.85.08-3.73,2.62-4.37,3.43-5.66,7.13,1.91,11.98,8.24,13.84,4.5,1.32,8.79,1.83,13.22.02-3.12-3.33-3.8-7.2-3.53-11.67ZM513.52,171.69c-.89.17-1.78,2.46-1.91,3.3-1.83,11.74,22.49,16.24,23.76,5.5.18-1.56-.12-4.45-1.71-5.17-.79-.36-6.53.35-8.41.17-1.51-.15-3.45-.72-4.95-1.14-1.28-.36-6.42-2.72-6.78-2.66ZM531.06,191.18c-3.61.79-7.18.31-10.81.05-2.28,8.6-7.01,17.66-8.6,26.36-1.82,9.94,7.47,11.63,11.11,4.16l8.31-30.57ZM819.12,206.39c4.55,7.33.06,17.31-9.3,16.03-3.94-.54-5.55-3.73-8.28-6.04-7.86,10.96,5.69,16.39,14.99,14.13,13.62-3.31,20.84-22.2,2.59-24.12ZM844.76,252.22c.37-2.77,0-7.02,0-9.99,0-.22,1.05-1.1,1.52-1.1,2.53-.03,2.47,8.61,2.39,10.44,11.41-13.07-.76-29.35-13.47-35.63-1.89,15.82-22.3,25.13-35.42,15.72-5.49,5.29-7.78,15.58-2.82,21.86,1.82,2.31,7.81,4.45,9.37,1.52.74-1.4-3.75-7.36-1.32-7.82,2.05-.39,6.8,6.74,7.3,8.77.82,3.34.03,7.05-2.96,2.96-.47.99-2.51,1.57-2.33,2.3,2.38,7.16,11.01,10.99,17.72,7.01,4.4-2.61,5.36-7.46,6.06-12.18.18-1.18-.43-4.65,1.19-4.92,2.79-.46,2.76,9.96,1.91,11.71,5.41-.23,10.16-5.45,10.86-10.64ZM606.23,317.18c.25,2.1-.03,7.16-2.8,4.32-1.95-12.69-4.36-26.93-15.05-35.35-7.5-5.9-18.78-7.19-26.46-.9,21.05-.97,27.21,21.8,35.55,36.57,3.75,6.65,12.71,17.83,13.12,25.11.14,2.56-.45,4.42-1.31,6.75,13.82-8.22,8.75-28.75-3.04-36.5ZM785.23,326.74c-.48.32-9.89,0-11.51,0-8.05,0-21.37,8.72-21.52,17.62-.24,14.37,21.37,14.19,31.05,11.9,21.4-5.07,23.25-24.63,16.65-42.66-6.08-16.63-21.69-41.43-42.03-27.05,5.21,1.86,10.03,5.01,12.37,10.22,4.29,9.56,3.48,22.03-6.73,27.14l.44,1.09c3.74-2.08,18.72-3.5,21.29-.65.56.62.26,2.22,0,2.39ZM604.35,353.1c5.61-6.25-6.06-20.22-9.34-25.8-7.1-12.11-15.47-39.83-33.28-37.46-3.78.5-5.36,1.77-6.46,5.27-6.59,20.96,19.15,49.39,37.19,56.9,2.81,1.17,9.53,3.71,11.89,1.09ZM750.91,318.91c8.91,5.74,17.13-2.26,17.4-11.49.16-5.47-2.85-13.15-8.29-15.21-6.32-2.39-13.36.03-14.32,7.16,10.28-4.42,16.06,8.33,9.56,15.87-1.27,1.47-2.18,1.85-3.73,2.77-.39.23-.86-.22-.62.9ZM622.31,334.56c.96.69,3.67-3.66,3.99-4.47,3.69-9.38-6.68-22.58-16.45-22.73-.64,0-3.81.47-4,.76-.3.47.11,3.28.49,3.74.24.3,4.29,2.69,5.33,3.58,5.8,4.98,9.35,11.58,10.64,19.13Z"/>
          <path class="cls-1" d="M649.68,225.49c13.27,10.13,31.45,9.09,44.97.01.41-.56-1.05-.91-1.08-1.94-.11-4.1,8.67-.63,8.25,3.45-.26,2.52-3.06.84-3.44,1.12-.23.17-2.23,4.43-2.52,5.09-1.7,3.89-2.62,7.91-4.67,11.84-10.32,19.76-33.09,19.76-38.68-3.05-.62-2.53-.68-7.17-1.41-9.01-.4-1.01-2.37-3.03-3.08-4.31-.3-.55-.47-1.78-.54-1.84-.47-.4-2.71.75-3.25-1.34-1.17-4.54,9.52-7.19,5.47-.02ZM680.41,241.69c-1.39.22-3.05,1.06-4.19,1.89s-4.75,5.26-5.11,5.35c-2.35.61-1.61-3.03-2.09-3.88-1.65-2.88-8.05,1.97-9.33,3.7,4.96,6.77,13,8.04,20.11,3.62,4.79-2.98,10.96-12.28.61-10.68Z"/>
          <path class="cls-1" d="M699.11,173.89c10.51-1.05,11.93,16.52,11.4,23.6-.59,7.94-7.21,23.3-17.37,18.21-12.22-6.13-8.14-40.4,5.97-41.81ZM703.43,186.48c-3.51,1.04-4.45,11.19-.09,11.19s5.35-12.75.09-11.19Z"/>
          <path class="cls-1" d="M647.83,171.29c11.35-1.82,12.39,18.1,11.86,25.33-.51,6.9-5.34,20.36-14.28,18.15-14.59-3.62-11.35-41.28,2.42-43.48ZM653.89,184.31c-4.48.04-5.37,10.61-1.8,11.22,5.59.95,5.66-11.25,1.8-11.22Z"/>
          <path class="cls-1" d="M713.02,212.13c9.91-1,11.54,12.87,1.5,13.26-9.31.36-10.57-12.35-1.5-13.26Z"/>
          <path class="cls-1" d="M630.44,210.83c9.15-1.48,10.94,10.57,2.83,11.96-10.41,1.78-11.11-10.62-2.83-11.96Z"/>
          <path class="cls-1" d="M661.56,205.67c2.7-2.7,6.95-3.17,10.14-1.11,1.17.76,3.75,3.37,1.86,4.21-1.75.78-2.92-1.14-4.66-1.43-7.01-1.16-7.14,8.93,1.1,9.82,1.27.14,3.38-1.19,3.15,1.15-.25,2.5-4.79,2.62-6.65,2.3-6.88-1.17-9.94-9.95-4.94-14.95Z"/>
          <path class="cls-1" d="M713.39,161.79c1.34,1.34,3.49,4.93,3.87,6.77.25,1.22.8,4.68-.9,4.84-1.89.17-2.17-2.83-2.89-4.08-3.1-5.4-7.95-8.2-14.25-6.15-1.61.53-3.6,2.65-5.22.83,3.25-7.44,13.96-7.65,19.39-2.21Z"/>
          <path class="cls-1" d="M632.77,168.11c-1.56-1.09,1.54-6.19,2.39-7.31,3.21-4.23,7.8-6.7,13.22-5.47,1.99.45,6.58,4.04,5.44,6.3s-3.65-.23-4.91-.75c-4.17-1.72-6.99-.83-10.32,2.05-1.36,1.18-4.28,6.25-5.81,5.18Z"/>
          <path class="cls-1" d="M738.85,180.21c-1.41-1.25-.35-10.51,2.65-10.23,4.64.43,1.06,13.51-2.65,10.23Z"/>
          <path class="cls-1" d="M736.52,229.47c1.06.66.53,8.68-3.11,7.71-2.92-.78-.26-9.81,3.11-7.71Z"/>
          <path class="cls-1" d="M759.02,158.66c2.55-.23,1.83,8.5-1.36,8.21-2.96-.27-1.5-7.95,1.36-8.21Z"/>
          <path class="cls-1" d="M740.42,200.36c.82.51,1.37,9.04-2.69,7.7-2.48-.82-.38-9.61,2.69-7.7Z"/>
          <path class="cls-1" d="M748.19,239.03c3.35-.49,2.01,8.98-1.78,7.71-1.5-.5-.92-7.32,1.78-7.71Z"/>
          <path class="cls-1" d="M718.61,249.46c4.39-1.47,2.34,9.62-1.19,7.14-.99-.7-.49-6.57,1.19-7.14Z"/>
          <path class="cls-1" d="M752.44,213.91c2.21.24,1.1,7.97-2.1,7.19-2.48-.61-1.03-7.52,2.1-7.19Z"/>
          <path class="cls-1" d="M629.99,246.83c2.58-.67,4.04,6.25,1.57,6.85-2.95.72-4.4-6.12-1.57-6.85Z"/>
          <path class="cls-1" d="M734.78,257.71c.68,1.09.06,5.25-1.92,5.59-3.88.67-2.97-5.35.22-5.9.42-.07,1.53.04,1.7.31Z"/>
        </g>
      </g>
    </g>
  </g>
</svg>